<?xml version="1.0" standalone="no"?>
<!DOCTYPE svg PUBLIC "-//W3C//DTD SVG 20010904//EN"
 "http://www.w3.org/TR/2001/REC-SVG-20010904/DTD/svg10.dtd">
<svg version="1.0" xmlns="http://www.w3.org/2000/svg"
 width="1440.000000pt" height="700.000000pt" viewBox="0 0 1440.000000 700.000000"
 preserveAspectRatio="xMidYMid meet">

<g transform="translate(0.000000,700.000000) scale(0.100000,-0.100000)"
fill="#000000" stroke="none">
<path d="M0 5252 l0 -1749 213 -110 c983 -509 1589 -712 2347 -784 164 -16
597 -16 780 0 327 28 674 82 1125 176 287 60 484 106 1335 315 736 180 975
234 1320 294 779 137 1337 105 2156 -123 502 -140 823 -211 1114 -247 174 -21
650 -29 885 -15 529 33 1049 101 1770 232 262 47 287 52 888 170 l467 91 0
1749 0 1749 -7200 0 -7200 0 0 -1748z" fill="rgb(165,195,52)"/>
</g>
</svg>
